HIERARCHY
ROOT hip
{
  OFFSET 0 0 0
  CHANNELS 6 Xposition Yposition Zposition Zrotation Yrotation Xrotation
  JOINT abdomen
  {
    OFFSET 0 20.6881 -0.73152
    CHANNELS 3 Zrotation Xrotation Yrotation
    JOINT chest
    {
      OFFSET 0 11.7043 -0.48768
      CHANNELS 3 Zrotation Xrotation Yrotation
      JOINT neck
      {
        OFFSET 0 22.1894 -2.19456
        CHANNELS 3 Zrotation Xrotation Yrotation
        JOINT head
        {
          OFFSET -0.24384 7.07133 1.2192
          CHANNELS 3 Zrotation Xrotation Yrotation
          JOINT leftEye
          {
            OFFSET 4.14528 8.04674 8.04672
            CHANNELS 3 Zrotation Xrotation Yrotation
            End Site
            {
              OFFSET 1 0 0
            }
          }
          JOINT rightEye
          {
            OFFSET -3.6576 8.04674 8.04672
            CHANNELS 3 Zrotation Xrotation Yrotation
            End Site
            {
              OFFSET 1 0 0
            }
          }
        }
      }
      JOINT rCollar
      {
        OFFSET -2.68224 19.2634 -4.8768
        CHANNELS 3 Zrotation Xrotation Yrotation
        JOINT rShldr
        {
          OFFSET -8.77824 -1.95073 1.46304
          CHANNELS 3 Zrotation Xrotation Yrotation
          JOINT rForeArm
          {
            OFFSET -28.1742 -1.7115 0.48768
            CHANNELS 3 Zrotation Xrotation Yrotation
            JOINT rHand
            {
              OFFSET -22.5879 0.773209 7.07136
              CHANNELS 3 Zrotation Xrotation Yrotation
              JOINT rThumb1
              {
                OFFSET -1.2192 -0.487915 3.41376
                CHANNELS 3 Zrotation Xrotation Yrotation
                JOINT rThumb2
                {
                  OFFSET -3.37035 -0.52449 3.41376
                  CHANNELS 3 Zrotation Xrotation Yrotation
                  End Site
                  {
                    OFFSET -1.78271 -1.18214 1.43049
                  }
                }
              }
              JOINT rIndex1
              {
                OFFSET -7.75947 0.938293 5.60832
                CHANNELS 3 Zrotation Xrotation Yrotation
                JOINT rIndex2
                {
                  OFFSET -2.54057 -0.884171 1.56538
                  CHANNELS 3 Zrotation Xrotation Yrotation
                  End Site
                  {
                    OFFSET -1.62519 -0.234802 1.16502
                  }
                }
              }
              JOINT rMid1
              {
                OFFSET -8.24714 1.18213 3.41376
                CHANNELS 3 Zrotation Xrotation Yrotation
                JOINT rMid2
                {
                  OFFSET -3.10165 -0.590103 1.0647
                  CHANNELS 3 Zrotation Xrotation Yrotation
                  End Site
                  {
                    OFFSET -2.48547 -0.328903 0.83742
                  }
                }
              }
              JOINT rRing1
              {
                OFFSET -8.82822 0.546677 1.51678
                CHANNELS 3 Zrotation Xrotation Yrotation
                JOINT rRing2
                {
                  OFFSET -2.60934 -0.819778 -0.0198488
                  CHANNELS 3 Zrotation Xrotation Yrotation
                  End Site
                  {
                    OFFSET -2.33842 -0.294052 0.168128
                  }
                }
              }
              JOINT rPinky1
              {
                OFFSET -8.27202 -0.0477905 -0.4584
                CHANNELS 3 Zrotation Xrotation Yrotation
                JOINT rPinky2
                {
                  OFFSET -1.82734 -0.647385 -0.700984
                  CHANNELS 3 Zrotation Xrotation Yrotation
                  End Site
                  {
                    OFFSET -1.69225 -0.51767 -0.607171
                  }
                }
              }
            }
          }
        }
      }
      JOINT lCollar
      {
        OFFSET 2.68224 19.2634 -4.8768
        CHANNELS 3 Zrotation Xrotation Yrotation
        JOINT lShldr
        {
          OFFSET 8.77824 -1.95073 1.46304
          CHANNELS 3 Zrotation Xrotation Yrotation
          JOINT lForeArm
          {
            OFFSET 28.1742 -1.7115 0.48768
            CHANNELS 3 Zrotation Xrotation Yrotation
            JOINT lHand
            {
              OFFSET 22.5879 0.773209 7.07136
              CHANNELS 3 Zrotation Xrotation Yrotation
              JOINT lThumb1
              {
                OFFSET 1.2192 -0.487915 3.41376
                CHANNELS 3 Zrotation Xrotation Yrotation
                JOINT lThumb2
                {
                  OFFSET 3.37035 -0.52449 3.41376
                  CHANNELS 3 Zrotation Xrotation Yrotation
                  End Site
                  {
                    OFFSET 1.78271 -1.18214 1.43049
                  }
                }
              }
              JOINT lIndex1
              {
                OFFSET 7.75947 0.938293 5.60832
                CHANNELS 3 Zrotation Xrotation Yrotation
                JOINT lIndex2
                {
                  OFFSET 2.54057 -0.884171 1.56538
                  CHANNELS 3 Zrotation Xrotation Yrotation
                  End Site
                  {
                    OFFSET 1.62519 -0.234802 1.16502
                  }
                }
              }
              JOINT lMid1
              {
                OFFSET 8.24714 1.18213 3.41376
                CHANNELS 3 Zrotation Xrotation Yrotation
                JOINT lMid2
                {
                  OFFSET 3.10165 -0.590103 1.0647
                  CHANNELS 3 Zrotation Xrotation Yrotation
                  End Site
                  {
                    OFFSET 2.48547 -0.328903 0.83742
                  }
                }
              }
              JOINT lRing1
              {
                OFFSET 8.82822 0.546677 1.51678
                CHANNELS 3 Zrotation Xrotation Yrotation
                JOINT lRing2
                {
                  OFFSET 2.60934 -0.819778 -0.0198488
                  CHANNELS 3 Zrotation Xrotation Yrotation
                  End Site
                  {
                    OFFSET 2.33842 -0.294052 0.168128
                  }
                }
              }
              JOINT lPinky1
              {
                OFFSET 8.27202 -0.0477905 -0.4584
                CHANNELS 3 Zrotation Xrotation Yrotation
                JOINT lPinky2
                {
                  OFFSET 1.82734 -0.647385 -0.700984
                  CHANNELS 3 Zrotation Xrotation Yrotation
                  End Site
                  {
                    OFFSET 1.69225 -0.51767 -0.607171
                  }
                }
              }
            }
          }
        }
      }
    }
  }
  JOINT rButtock
  {
    OFFSET -8.77824 4.35084 1.2192
    CHANNELS 3 Zrotation Xrotation Yrotation
    JOINT rThigh
    {
      OFFSET 0 -1.70687 -2.19456
      CHANNELS 3 Zrotation Xrotation Yrotation
      JOINT rShin
      {
        OFFSET 0 -36.8199 0.73152
        CHANNELS 3 Zrotation Xrotation Yrotation
        JOINT rFoot
        {
          OFFSET 0.73152 -45.1104 -5.12064
          CHANNELS 3 Zrotation Xrotation Yrotation
          End Site
          {
            OFFSET -1.1221 -3.69964 12.103
          }
        }
      }
    }
  }
  JOINT lButtock
  {
    OFFSET 8.77824 4.35084 1.2192
    CHANNELS 3 Zrotation Xrotation Yrotation
    JOINT lThigh
    {
      OFFSET 0 -1.70687 -2.19456
      CHANNELS 3 Zrotation Xrotation Yrotation
      JOINT lShin
      {
        OFFSET 0 -36.8199 0.73152
        CHANNELS 3 Zrotation Xrotation Yrotation
        JOINT lFoot
        {
          OFFSET -0.73152 -45.1104 -5.12064
          CHANNELS 3 Zrotation Xrotation Yrotation
          End Site
          {
            OFFSET 1.1221 -3.69964 12.103
          }
        }
      }
    }
  }
}
MOTION
Frames:	8
Frame Time:	0.03333
0.0 0.0 0.0 0.0 0.0 0.0 0.0 0.0 0.0 0.0 0.0 0.0 0.0 0.0 0.0 0.0 0.0 0.0 0.0 0.0 0.0 0.0 0.0 0.0 0.0 0.0 0.0 0.0 0.0 0.0 0.0 0.0 0.0 0.0 0.0 0.0 0.0 0.0 0.0 0.0 0.0 0.0 0.0 0.0 0.0 0.0 0.0 0.0 0.0 0.0 0.0 0.0 0.0 0.0 0.0 0.0 0.0 0.0 0.0 0.0 0.0 0.0 0.0 0.0 0.0 0.0 0.0 0.0 0.0 0.0 0.0 0.0 0.0 0.0 0.0 0.0 0.0 0.0 0.0 0.0 0.0 0.0 0.0 0.0 0.0 0.0 0.0 0.0 0.0 0.0 0.0 0.0 0.0 0.0 0.0 0.0 0.0 0.0 0.0 0.0 0.0 0.0 0.0 0.0 0.0 0.0 0.0 0.0 0.0 0.0 0.0 0.0 0.0 0.0 0.0 0.0 0.0 0.0 0.0 0.0 0.0 0.0 0.0 0.0 0.0 0.0 0.0 0.0 0.0 0.0 0.0 0.0
2.4901 79.0022 0.3584 -12.767346 -22.725634 14.239429 6.396912 -9.106537 -106.904836 7.849666 1.987198 96.615952 12.53982 16.542467 105.704367 -25.347902 22.460126 -128.634304 0.001943 -0.0 -0.001699 -0.001932 -0.0 0.003032 -149.851257 22.601488 154.913097 7.3845 75.51185 24.327232 -148.751117 -77.162783 119.032583 149.227512 -44.952945 133.668427 -172.824843 -10.5009 89.92665 -53.463732 -9.864756 10.894657 -138.492606 4.896033 114.864758 -63.807458 56.643514 45.562581 -169.09113 -33.247349 145.373732 -139.303388 43.213502 127.075088 -145.100609 -1.438363 -178.676578 -157.201527 45.539542 175.528276 -156.382207 53.73448 -150.116882 -148.874894 13.564532 -142.405018 153.659536 7.056985 -159.422219 164.395825 -2.17583 -166.11471 1.060685 11.191868 -42.607672 8.987714 53.735733 -7.080025 173.976644 -11.643276 -89.881742 152.686602 4.529715 -80.22079 -10.281581 -18.18264 4.585958 -4.166993 13.095382 -1.900033 89.835595 60.701529 -81.26253 163.825143 -7.044141 -143.377935 145.119312 0.268393 179.211102 74.522083 -77.996912 96.024809 141.697419 1.899192 138.684834 -72.990955 84.115119 34.679116 0.000259 -0.000162 -0.000333 -46.454594 -25.839013 78.327242 132.380138 -25.11931 88.175324 -7.469179 14.599451 -145.99873 -7.9e-05 -0.001171 -0.000119 12.218881 -24.865489 5.42563 -13.970977 42.642556 150.707825 -28.678907 -15.356361 -128.545629
3.7760000000000002 79.27459999999999 0.8733 -12.201486 -23.475598 13.779139 3.467904 -5.978548 -0.0 1.200986 -11.135136 -8.766949 -5.98739 20.584443 -111.449563 30.132332 14.717619 83.550887 0.003059 0.0 0.00258 0.003059 0.0 0.00258 4.23975 -44.742747 -8.647461 -118.559318 58.213897 107.370351 54.127561 61.54307 -139.41747 169.199525 -11.630937 145.794511 114.538094 -50.245344 55.72265 -17.762255 -50.634962 -29.249535 -90.225568 41.073351 75.796952 -153.645853 7.905759 112.541859 78.537079 -80.919268 49.689827 -42.435874 58.396256 36.304206 -132.48156 54.102939 155.533507 -155.833612 63.277643 167.705254 -0.347464 -0.889888 -0.317372 -146.218732 8.151211 -142.82587 -0.071508 -0.427768 0.094783 157.838474 43.496849 -167.453663 167.930519 -47.985388 132.824261 7.858204 51.144805 -6.570887 171.706383 -9.388262 -89.949094 132.322315 11.530206 -65.337349 161.900306 -36.243008 -122.689483 -12.546069 1.357778 9.517084 0.287452 0.832682 -0.159545 163.205733 -4.570913 -143.331272 -0.003624 1.771529 -0.555585 35.332709 75.966983 -48.342068 -16.514661 57.859161 -12.550163 -1.128578 -1.088731 0.879485 0.0 4.3e-05 -0.0003 -51.782568 -20.891968 145.77215 -173.491513 -49.200137 -40.972681 -155.110042 -77.773087 -51.281663 179.978192 75.750324 0.014921 -164.399212 50.393402 -19.921334 -28.128789 27.402564 -53.971644 156.051223 -10.607905 -115.456657
5.0301 79.1316 1.5176 -11.285301 -24.64143 12.903416 2.166475 -5.674206 9.613374 -0.918542 -11.119309 -16.246598 12.629005 9.985374 73.196521 -25.220062 6.936837 -90.805215 0.005754 0.0 0.001516 0.000469 0.0 0.00373 -9.650741 34.836417 11.198376 -20.083223 -14.448826 -9.379697 -24.485192 -69.763575 35.530832 -4.987979 15.865232 0.161456 4.531791 -4.513714 -0.521363 -156.746569 -70.937793 122.173478 73.418446 -73.5722 26.5603 -163.726937 -27.375153 114.438304 -170.281489 -36.723188 145.340823 -176.883635 -42.216056 142.427681 0.001489 0.063735 0.020277 -156.120655 -13.74469 173.482985 -150.034048 28.966388 -145.934555 -27.207767 -41.111998 -28.134594 143.619981 38.233046 -148.079839 -9.95931 14.56952 -9.734441 160.097815 -37.251267 129.37695 4.717785 42.955276 -5.601105 -81.971854 -50.091699 -32.722554 57.485481 31.517826 -19.421755 46.208352 39.654087 -36.316892 82.063517 50.253178 -60.094597 0.057237 0.16808 -0.030614 163.991411 -6.976713 -143.567093 145.099606 -1.604041 178.623976 73.588029 -78.003117 95.239371 135.822036 -11.890913 133.183037 147.082839 11.716135 141.815099 -179.998247 75.748733 -0.001809 112.20486 31.935008 50.896942 145.288179 31.881307 -78.290654 -67.202613 17.324516 -1.92656 -0.001603 0.000909 -0.000801 8.76291 -23.038974 3.613415 -21.141975 27.391125 -27.73715 -166.960272 -86.830495 -74.416381
6.1076 78.5971 2.0864000000000003 -9.829905 -26.108298 11.671347 1.149482 -5.213743 0.152172 0.027801 -11.242847 -3.202298 -5.67056 10.671023 -59.236709 22.129594 -5.982274 46.603637 -0.000936 0.0 -0.000902 -0.000936 0.0 -0.000902 -0.272868 1.606797 0.361262 -105.687028 72.378254 78.740392 66.941204 20.460552 -128.634643 -163.221616 40.401715 135.5561 169.030625 -27.077619 86.617965 -177.033673 -15.208017 104.241238 -13.870452 18.815508 9.289883 -11.165521 25.071582 7.685824 6.907897 -21.624117 -2.811173 -156.037957 15.62399 139.882667 -145.122976 1.07986 -179.469365 6.081604 -30.495775 -14.050964 -7.144879 -15.707568 -6.726787 -160.129341 58.176403 -150.043099 5.842784 24.993106 -7.011035 162.460088 29.63558 -169.417571 -178.572463 -1.894984 137.63917 14.844918 62.933376 -10.100329 -179.143143 -18.272588 -89.129599 -118.992201 -66.534859 -90.325859 148.886377 -12.60917 -120.245936 171.938292 -34.79616 -117.683876 -173.123452 -66.297706 -137.615329 -80.816532 -77.742079 -52.540488 0.057477 -3.429842 1.079441 78.047193 78.791387 -91.741075 103.688234 -45.139967 101.852896 -45.528854 80.822256 7.997208 179.983951 75.748636 0.013205 107.467491 37.78596 61.509843 144.862831 29.559435 -127.957515 85.317615 11.753111 2.925755 -0.005715 0.000295 -0.002858 6.29146 -22.414823 16.126463 -3.196047 40.008492 109.41688 -35.274125 54.368219 -60.550462
6.8785 77.78920000000001 2.4716 -8.241122 -27.657989 10.655362 -0.204172 -10.036259 -177.162822 1.255224 6.636509 178.047162 13.040282 8.170438 72.039051 -20.802046 3.893934 -78.488806 -0.000483 -0.0 0.000486 -0.000483 -0.0 0.000486 -82.106011 68.32688 85.22137 -2.936929 5.552296 -34.180989 16.982638 33.489207 -107.010132 -171.648343 8.367225 141.052364 93.028287 -51.083821 40.501116 -161.025221 -25.261921 125.437763 -140.685358 1.506489 116.183834 -119.550938 45.850337 95.205716 -156.687451 5.002938 141.07704 -85.887512 63.867505 77.776066 0.006011 1.77136 0.556626 -156.257581 -13.739109 173.485032 -85.781548 -50.536248 -84.155773 -146.167016 10.855156 -142.458491 159.220968 -49.362115 -170.70661 -19.665496 -29.157314 -11.311757 161.503123 6.068778 140.310762 4.290196 41.460416 -5.434566 68.482478 37.953864 -35.659555 109.696113 -12.320606 -79.369601 -159.641723 -69.973464 -102.395667 -7.798328 14.600911 4.740634 36.036703 51.722818 -29.832742 174.964066 -39.039193 -143.267025 -0.004357 1.771405 -0.556372 -11.427433 -36.420055 4.392533 121.288519 -32.930999 119.147224 24.723405 -40.579476 26.731069 -179.999439 75.749279 -0.000384 114.337959 46.528887 57.150385 146.09856 17.429614 9.496103 -5.00221 81.39412 -82.516551 179.998834 75.749279 0.000959 -171.653903 52.767952 -38.46432 -43.162484 17.454662 -95.494344 91.779526 12.664434 170.271758
7.472700000000001 76.8123 2.662 -6.84435 -29.083829 10.195437 -1.666789 -10.938675 -180.0 2.373844 6.904078 -175.729888 -5.281796 13.435527 -83.649745 23.866144 9.317662 81.912898 -0.000555 0.0 -0.000195 -0.000555 0.0 -0.000195 -155.417355 -2.951427 161.718541 54.163928 -5.690293 -13.093042 -33.100139 -49.042344 -127.144908 -173.773247 -14.560537 145.036342 -0.54274 0.536766 0.085303 -137.022384 -39.701484 118.371333 -46.206947 39.65483 36.316803 -66.403892 50.09783 46.860436 13.807692 -42.122484 -2.983369 -129.33938 52.092896 118.41653 -75.673121 -72.116264 -92.828894 14.124146 26.893142 -1.076561 -74.131239 -51.7459 -72.618866 -10.079275 -26.606331 -12.824325 155.417322 -2.951352 -161.718774 -16.817192 -5.86485 -5.551952 -90.212601 27.910805 113.021195 -175.714918 26.571884 -156.048847 0.543098 0.536561 -0.086105 11.924888 12.388615 -10.559368 64.086903 43.0402 -52.300888 94.353882 49.885404 -70.092793 -3.623747 -11.074157 1.751785 161.280939 1.347223 -142.597592 77.744182 72.903032 -95.870125 158.571976 -28.590831 179.628867 124.852135 -29.039351 122.622325 93.634763 -50.347917 93.536456 179.992231 75.75007 0.005315 135.047872 50.865623 -127.845961 -129.156127 -18.726733 82.006801 -106.379857 -32.323399 11.779201 179.992231 75.75007 0.005315 -174.179384 52.109362 -7.360205 -19.301345 36.878614 110.84024 -58.461621 40.580535 -31.335372
8.0851 75.6954 2.6509 -5.792962 -30.317339 10.148679 -0.829008 -7.977217 -44.01548 3.629369 -12.425256 52.509378 9.088554 21.403774 172.806969 -5.938393 28.777784 -164.048132 0.000856 0.0 0.000653 0.000856 0.0 0.000653 -153.15598 9.523161 158.798165 -60.093633 -57.331688 -115.305148 -117.45153 -45.29671 -71.040201 -2.809995 -64.668457 -11.827699 -173.976323 -11.643457 89.881363 -50.532752 -12.133281 8.915726 -90.223813 41.071714 75.797342 -61.878486 52.182792 41.955899 -169.091034 -33.247389 145.373592 167.239276 -63.968394 132.461516 -69.298295 72.945252 87.017984 2.78674 47.159538 3.225484 -131.402225 -19.915479 -128.959997 4.025077 2.815372 -0.937668 0.165051 0.979124 -0.219637 148.299497 58.141941 -148.167181 -61.433378 60.668552 130.793962 -157.980505 -25.265973 -146.204578 93.743597 37.963027 -53.548417 130.335918 -18.969371 -76.802644 43.648873 38.803013 -34.060484 -117.395879 -63.196245 -64.944604 125.643854 49.839719 -115.273739 161.063665 1.250909 -142.346315 75.672508 -72.11735 92.82855 -13.936788 29.732145 0.629192 160.133639 66.423225 151.1041 146.922381 7.420073 141.100276 0.00262 0.001002 0.00131 -16.821121 -18.043504 -44.305535 169.40159 51.415858 41.187182 -91.589641 26.045898 -174.337554 179.983835 75.748639 0.0133 -176.258684 48.349621 141.158973 47.036025 -11.599943 138.372957 -72.672326 68.538224 164.73867
